#!OML:ASF X:\für Bonn\!DataBase\2005_08_10_Bjorn_Final\c3d\bjorn.ASF
:FULLY-SPECIFIED
:DEGREES
135
root -0.375886 10.2918 8.99897 -2350.01 6.87988 162.929
lowerback 54.5209 -17.5169 4.74535
upperback 24.4547 -3.43498 3.65989
thorax 6.65914 3.52281 3.69356
lowerneck 5.52876 -6.28526 7.89348
upperneck -0.738392 -7.8623 -1.40935
head -1.56884 -3.91463 -1.52819
rclavicle -7.63333e-014 -1.02374e-013
rhumerus -345.956 -52.3839 286.804
rradius 19.3919
rwrist -13.8354
rhand -9.54536 6.53643
rfingers 7.12502
rthumb 16.4214 -22.7885
lclavicle -7.63333e-014 -1.02374e-013
lhumerus -8.48463 -37.9451 83.6899
lradius 43.6471
lwrist 25.361
lhand 5.1895 -10.954
lfingers 7.12502
lthumb 30.5507 736.532
rfemur -89.9641 -36.2276 0.861897
rtibia 123.017
rfoot -19.5267 35.6171
rtoes -7.46133
lfemur 101.756 172.594 153.279
ltibia 120.033
lfoot -26.0082 7.1962
ltoes -21.5872
136
root -0.367796 10.104 8.99599 -2350.88 6.62312 163.106
lowerback 54.1849 -17.6046 4.69479
upperback 24.5697 -3.57316 3.55631
thorax 6.81207 3.51373 3.65444
lowerneck 5.38457 -6.22838 8.09187
upperneck -0.535511 -7.78643 -1.54775
head -1.49058 -3.86974 -1.61717
rclavicle -1.145e-013 -1.01579e-013
rhumerus -346.835 -52.6026 287.117
rradius 19.2791
rwrist -13.348
rhand -9.94912 6.35412
rfingers 7.12502
rthumb 16.0326 -23.0025
lclavicle -1.145e-013 -1.01579e-013
lhumerus -8.96834 -37.8672 84.0026
lradius 43.3852
lwrist 25.117
lhand 4.71062 -10.7702
lfingers 7.12502
lthumb 30.0939 736.8
rfemur -90.4415 -37.7484 1.04402
rtibia 124.33
rfoot -19.6553 36.5179
rtoes -7.31327
lfemur 101.609 172.25 153.623
ltibia 121.362
lfoot -26.1801 6.97665
ltoes -21.8094
137
root -0.357548 9.91422 8.99068 -2351.69 6.35676 163.265
lowerback 53.748 -17.6538 4.59747
upperback 24.6904 -3.73193 3.45973
thorax 6.97941 3.47849 3.64533
lowerneck 5.27827 -6.15386 8.30706
upperneck -0.366081 -7.68317 -1.69404
head -1.42955 -3.81181 -1.71138
rclavicle 4.77083e-014 -3.73715e-014
rhumerus -347.581 -53.0265 287.295
rradius 19.0443
rwrist -12.6321
rhand -10.328 6.2442
rfingers 7.12502
rthumb 15.6678 -23.1414
lclavicle 4.77083e-014 -3.73715e-014
lhumerus -9.48609 -37.7446 84.3102
lradius 43.0992
lwrist 24.9206
lhand 4.06924 -10.668
lfingers 7.12502
lthumb 29.4818 737.012
rfemur -91.0697 -39.4288 1.28826
rtibia 125.654
rfoot -19.7883 37.4927
rtoes -7.18188
lfemur 101.374 171.86 153.951
ltibia 122.699
lfoot -26.341 6.6616
ltoes -21.9487
138
root -0.344285 9.72048 8.98412 -2352.44 6.09355 163.431
lowerback 53.2009 -17.6555 4.50279
upperback 24.8144 -3.87642 3.37166
thorax 7.15938 3.43912 3.63561
lowerneck 5.17125 -6.0825 8.54928
upperneck -0.175436 -7.58207 -1.81973
head -1.36151 -3.75465 -1.80402
rclavicle 0 -7.63333e-014
rhumerus -348.283 -53.7812 287.363
rradius 18.795
rwrist -11.7062
rhand -10.6095 6.1865
rfingers 7.12502
rthumb 15.3967 -23.2202
lclavicle 0 -7.63333e-014
lhumerus -10.0321 -37.5844 84.6196
lradius 42.7948
lwrist 24.7159
lhand 3.28907 -10.6899
lfingers 7.12502
lthumb 28.7367 737.119
rfemur -91.9034 -41.2544 1.66967
rtibia 126.996
rfoot -19.9408 38.5127
rtoes -6.98232
lfemur 101.009 171.371 154.276
ltibia 124.046
lfoot -26.4458 6.33599
ltoes -22.1211
139
root -0.327598 9.52595 8.97658 -2353.11 5.82181 163.568
lowerback 52.5679 -17.5994 4.39784
upperback 24.9001 -4.01923 3.28264
thorax 7.30293 3.38224 3.62009
lowerneck 5.10259 -6.02416 8.85332
upperneck 0.0826323 -7.48901 -1.95095
head -1.28159 -3.69837 -1.90895
rclavicle -8.90555e-014 -1.05356e-013
rhumerus -349.156 -54.6612 287.504
rradius 18.573
rwrist -10.7786
rhand -10.7884 6.16377
rfingers 7.12502
rthumb 15.2244 -23.2561
lclavicle -8.90555e-014 -1.05356e-013
lhumerus -10.7003 -37.3505 84.9843
lradius 42.5064
lwrist 24.55
lhand 2.39395 -10.763
lfingers 7.12502
lthumb 27.8813 737.188
rfemur -92.9678 -43.2541 2.17427
rtibia 128.352
rfoot -20.1035 39.5798
rtoes -6.84642
lfemur 100.536 170.842 154.581
ltibia 125.383
lfoot -26.5338 5.88931
ltoes -22.0694
